<mxfile host="app.diagrams.net" modified="2023-05-23T12:02:01.255Z" agent="Mozilla/5.0 (Macintosh; Intel Mac OS X 10_15_7) AppleWebKit/537.36 (KHTML, like Gecko) Chrome/113.0.0.0 Safari/537.36" etag="nK-jJpstl7BV3-wEbaNq" version="21.3.3" type="device">
  <diagram name="Page-1" id="PBCfjUG6kpBy3bA3aIBL">
    <mxGraphModel dx="718" dy="461" grid="1" gridSize="10" guides="1" tooltips="1" connect="1" arrows="1" fold="1" page="1" pageScale="1" pageWidth="850" pageHeight="1100" math="0" shadow="0">
      <root>
        <mxCell id="0" />
        <mxCell id="1" parent="0" />
        <mxCell id="GCgy2_25BJciA-IC9kOX-7" value="DEFINES" style="edgeStyle=orthogonalEdgeStyle;rounded=0;orthogonalLoop=1;jettySize=auto;html=1;entryX=0.5;entryY=0;entryDx=0;entryDy=0;fontSize=10;" parent="1" source="GCgy2_25BJciA-IC9kOX-1" target="GCgy2_25BJciA-IC9kOX-6" edge="1">
          <mxGeometry x="0.0081" relative="1" as="geometry">
            <mxPoint as="offset" />
          </mxGeometry>
        </mxCell>
        <mxCell id="GCgy2_25BJciA-IC9kOX-1" value="contract" style="ellipse;whiteSpace=wrap;html=1;aspect=fixed;fontSize=10;" parent="1" vertex="1">
          <mxGeometry x="240" y="40" width="50" height="50" as="geometry" />
        </mxCell>
        <mxCell id="GCgy2_25BJciA-IC9kOX-4" value="server" style="ellipse;whiteSpace=wrap;html=1;fontSize=10;" parent="1" vertex="1">
          <mxGeometry x="410" y="150" width="50" height="50" as="geometry" />
        </mxCell>
        <mxCell id="GCgy2_25BJciA-IC9kOX-5" value="SERVED_BY" style="endArrow=classic;html=1;rounded=0;exitX=1;exitY=0.5;exitDx=0;exitDy=0;entryX=0.5;entryY=0;entryDx=0;entryDy=0;fontSize=10;edgeStyle=orthogonalEdgeStyle;" parent="1" source="GCgy2_25BJciA-IC9kOX-1" target="GCgy2_25BJciA-IC9kOX-4" edge="1">
          <mxGeometry x="-0.3934" width="50" height="50" relative="1" as="geometry">
            <mxPoint x="440" y="210" as="sourcePoint" />
            <mxPoint x="490" y="160" as="targetPoint" />
            <mxPoint as="offset" />
          </mxGeometry>
        </mxCell>
        <mxCell id="GCgy2_25BJciA-IC9kOX-9" value="SERVED_BY" style="edgeStyle=orthogonalEdgeStyle;rounded=0;orthogonalLoop=1;jettySize=auto;html=1;entryX=0;entryY=0.5;entryDx=0;entryDy=0;fontSize=10;" parent="1" source="GCgy2_25BJciA-IC9kOX-6" target="GCgy2_25BJciA-IC9kOX-4" edge="1">
          <mxGeometry x="0.1667" relative="1" as="geometry">
            <mxPoint as="offset" />
          </mxGeometry>
        </mxCell>
        <mxCell id="GCgy2_25BJciA-IC9kOX-13" value="PROVIDES" style="edgeStyle=orthogonalEdgeStyle;rounded=0;orthogonalLoop=1;jettySize=auto;html=1;fontSize=10;" parent="1" source="GCgy2_25BJciA-IC9kOX-6" target="GCgy2_25BJciA-IC9kOX-12" edge="1">
          <mxGeometry relative="1" as="geometry" />
        </mxCell>
        <mxCell id="GCgy2_25BJciA-IC9kOX-23" value="ACCEPTS" style="edgeStyle=orthogonalEdgeStyle;rounded=0;orthogonalLoop=1;jettySize=auto;html=1;entryX=0.5;entryY=0;entryDx=0;entryDy=0;fontSize=10;" parent="1" source="GCgy2_25BJciA-IC9kOX-6" target="GCgy2_25BJciA-IC9kOX-8" edge="1">
          <mxGeometry x="-0.4295" relative="1" as="geometry">
            <mxPoint as="offset" />
          </mxGeometry>
        </mxCell>
        <mxCell id="GCgy2_25BJciA-IC9kOX-6" value="path" style="ellipse;whiteSpace=wrap;html=1;fontSize=10;" parent="1" vertex="1">
          <mxGeometry x="240" y="150" width="50" height="50" as="geometry" />
        </mxCell>
        <mxCell id="GCgy2_25BJciA-IC9kOX-8" value="parameter" style="ellipse;whiteSpace=wrap;html=1;fontSize=10;" parent="1" vertex="1">
          <mxGeometry x="120" y="210" width="50" height="50" as="geometry" />
        </mxCell>
        <mxCell id="GCgy2_25BJciA-IC9kOX-14" value="ACCEPTS" style="edgeStyle=orthogonalEdgeStyle;rounded=0;orthogonalLoop=1;jettySize=auto;html=1;entryX=0.5;entryY=1;entryDx=0;entryDy=0;fontSize=10;" parent="1" source="GCgy2_25BJciA-IC9kOX-12" target="GCgy2_25BJciA-IC9kOX-8" edge="1">
          <mxGeometry x="-0.3981" relative="1" as="geometry">
            <mxPoint as="offset" />
          </mxGeometry>
        </mxCell>
        <mxCell id="GCgy2_25BJciA-IC9kOX-16" value="RETURNS" style="edgeStyle=orthogonalEdgeStyle;rounded=0;orthogonalLoop=1;jettySize=auto;html=1;fontSize=10;entryX=0.5;entryY=0;entryDx=0;entryDy=0;" parent="1" source="GCgy2_25BJciA-IC9kOX-12" target="GCgy2_25BJciA-IC9kOX-15" edge="1">
          <mxGeometry x="0.4734" relative="1" as="geometry">
            <Array as="points">
              <mxPoint x="250" y="330" />
              <mxPoint x="203" y="330" />
            </Array>
            <mxPoint as="offset" />
          </mxGeometry>
        </mxCell>
        <mxCell id="GCgy2_25BJciA-IC9kOX-24" value="SERVED_BY" style="edgeStyle=orthogonalEdgeStyle;rounded=0;orthogonalLoop=1;jettySize=auto;html=1;fontSize=10;" parent="1" source="GCgy2_25BJciA-IC9kOX-12" target="GCgy2_25BJciA-IC9kOX-4" edge="1">
          <mxGeometry x="-0.4241" relative="1" as="geometry">
            <mxPoint as="offset" />
          </mxGeometry>
        </mxCell>
        <mxCell id="GCgy2_25BJciA-IC9kOX-25" value="EXPECTS" style="edgeStyle=orthogonalEdgeStyle;rounded=0;orthogonalLoop=1;jettySize=auto;html=1;entryX=0.5;entryY=0;entryDx=0;entryDy=0;fontSize=10;" parent="1" source="GCgy2_25BJciA-IC9kOX-12" target="GCgy2_25BJciA-IC9kOX-18" edge="1">
          <mxGeometry x="0.4844" relative="1" as="geometry">
            <Array as="points">
              <mxPoint x="280" y="330" />
              <mxPoint x="333" y="330" />
            </Array>
            <mxPoint as="offset" />
          </mxGeometry>
        </mxCell>
        <mxCell id="GCgy2_25BJciA-IC9kOX-12" value="operation" style="ellipse;whiteSpace=wrap;html=1;fontSize=10;" parent="1" vertex="1">
          <mxGeometry x="238.75" y="270" width="52.5" height="50" as="geometry" />
        </mxCell>
        <mxCell id="GCgy2_25BJciA-IC9kOX-21" value="CONTAINS" style="edgeStyle=orthogonalEdgeStyle;rounded=0;orthogonalLoop=1;jettySize=auto;html=1;entryX=0;entryY=0.5;entryDx=0;entryDy=0;exitX=0.5;exitY=1;exitDx=0;exitDy=0;fontSize=10;" parent="1" source="GCgy2_25BJciA-IC9kOX-15" target="GCgy2_25BJciA-IC9kOX-20" edge="1">
          <mxGeometry x="-0.4171" relative="1" as="geometry">
            <mxPoint as="offset" />
          </mxGeometry>
        </mxCell>
        <mxCell id="GCgy2_25BJciA-IC9kOX-15" value="response" style="ellipse;whiteSpace=wrap;html=1;fontSize=10;" parent="1" vertex="1">
          <mxGeometry x="180" y="380" width="45" height="45" as="geometry" />
        </mxCell>
        <mxCell id="GCgy2_25BJciA-IC9kOX-22" value="CONTAINS" style="edgeStyle=orthogonalEdgeStyle;rounded=0;orthogonalLoop=1;jettySize=auto;html=1;entryX=1;entryY=0.5;entryDx=0;entryDy=0;exitX=0.5;exitY=1;exitDx=0;exitDy=0;fontSize=10;" parent="1" source="GCgy2_25BJciA-IC9kOX-18" target="GCgy2_25BJciA-IC9kOX-20" edge="1">
          <mxGeometry x="-0.4872" relative="1" as="geometry">
            <mxPoint as="offset" />
          </mxGeometry>
        </mxCell>
        <mxCell id="GCgy2_25BJciA-IC9kOX-18" value="request&lt;br style=&quot;font-size: 10px;&quot;&gt;body" style="ellipse;whiteSpace=wrap;html=1;fontSize=10;" parent="1" vertex="1">
          <mxGeometry x="310" y="380" width="45" height="45" as="geometry" />
        </mxCell>
        <mxCell id="GCgy2_25BJciA-IC9kOX-27" value="DEFINED_BY" style="edgeStyle=orthogonalEdgeStyle;rounded=0;orthogonalLoop=1;jettySize=auto;html=1;" parent="1" source="GCgy2_25BJciA-IC9kOX-20" target="GCgy2_25BJciA-IC9kOX-26" edge="1">
          <mxGeometry x="-0.2085" y="-6" relative="1" as="geometry">
            <mxPoint as="offset" />
          </mxGeometry>
        </mxCell>
        <mxCell id="GCgy2_25BJciA-IC9kOX-20" value="media&lt;br style=&quot;font-size: 10px;&quot;&gt;Type" style="ellipse;whiteSpace=wrap;html=1;fontSize=10;" parent="1" vertex="1">
          <mxGeometry x="241.25" y="450" width="48.75" height="50" as="geometry" />
        </mxCell>
        <mxCell id="GCgy2_25BJciA-IC9kOX-26" value="schema" style="ellipse;whiteSpace=wrap;html=1;fontSize=10;" parent="1" vertex="1">
          <mxGeometry x="240.25" y="550" width="49.75" height="50" as="geometry" />
        </mxCell>
        <mxCell id="GCgy2_25BJciA-IC9kOX-29" value="&lt;p style=&quot;line-height: 60%;&quot;&gt;&lt;font style=&quot;font-size: 8px;&quot;&gt;&lt;span style=&quot;border-color: var(--border-color); background-color: initial;&quot;&gt;- &lt;b&gt;$ref&lt;/b&gt;&lt;/span&gt;: string&lt;br style=&quot;border-color: var(--border-color);&quot;&gt;&lt;span style=&quot;border-color: var(--border-color); background-color: initial;&quot;&gt;- &lt;b&gt;summary&lt;/b&gt;&lt;/span&gt;&lt;span style=&quot;border-color: var(--border-color); background-color: initial;&quot;&gt;: string&lt;/span&gt;&lt;br style=&quot;border-color: var(--border-color);&quot;&gt;&lt;span style=&quot;border-color: var(--border-color); background-color: initial;&quot;&gt;- &lt;b&gt;description&lt;/b&gt;&lt;/span&gt;&lt;span style=&quot;border-color: var(--border-color); background-color: initial;&quot;&gt;: string&lt;/span&gt;&lt;/font&gt;&lt;/p&gt;" style="shape=callout;whiteSpace=wrap;html=1;perimeter=calloutPerimeter;rounded=1;base=10;size=20;position=0.82;arcSize=6;position2=0.99;align=left;" parent="1" vertex="1">
          <mxGeometry x="150" y="100" width="91.25" height="60" as="geometry" />
        </mxCell>
        <mxCell id="GCgy2_25BJciA-IC9kOX-30" value="&lt;p style=&quot;line-height: 60%;&quot;&gt;&lt;span style=&quot;font-size: 8px;&quot;&gt;- &lt;b&gt;name&lt;/b&gt;: string&lt;br&gt;- &lt;b&gt;in&lt;/b&gt;: enum&lt;br&gt;- &lt;b&gt;description&lt;/b&gt;: string&lt;br&gt;- &lt;b&gt;required&lt;/b&gt;: boolean&lt;br&gt;- &lt;b&gt;deprecated&lt;/b&gt;: boolean&lt;br&gt;- &lt;b&gt;allowEmptyValue&lt;/b&gt;: boolean&lt;br&gt;...&lt;/span&gt;&lt;/p&gt;" style="shape=callout;whiteSpace=wrap;html=1;perimeter=calloutPerimeter;rounded=1;base=10;size=20;position=0.82;arcSize=6;position2=0.99;align=left;" parent="1" vertex="1">
          <mxGeometry x="8.75" y="140" width="111.25" height="85" as="geometry" />
        </mxCell>
        <mxCell id="GCgy2_25BJciA-IC9kOX-31" value="&lt;p style=&quot;line-height: 60%;&quot;&gt;&lt;font style=&quot;font-size: 8px;&quot;&gt;&lt;span style=&quot;border-color: var(--border-color); background-color: initial;&quot;&gt;- &lt;b&gt;url&lt;/b&gt;: &lt;/span&gt;&lt;span style=&quot;border-color: var(--border-color); background-color: initial;&quot;&gt;string&lt;br&gt;&lt;/span&gt;- &lt;b&gt;description&lt;/b&gt;: string&lt;br&gt;- &lt;b&gt;variables&lt;/b&gt;: Map[string, &lt;font color=&quot;#ff0000&quot;&gt;Object&lt;/font&gt;]&lt;br&gt;&lt;/font&gt;&lt;/p&gt;" style="shape=callout;whiteSpace=wrap;html=1;perimeter=calloutPerimeter;rounded=1;base=12;size=20;position=0.08;arcSize=6;position2=0;align=left;" parent="1" vertex="1">
          <mxGeometry x="460" y="100" width="120" height="60" as="geometry" />
        </mxCell>
        <mxCell id="GCgy2_25BJciA-IC9kOX-32" value="&lt;p style=&quot;line-height: 20%; font-size: 8px;&quot;&gt;&lt;font style=&quot;font-size: 8px;&quot;&gt;- &lt;b&gt;type&lt;/b&gt;: enum&lt;/font&gt;&lt;/p&gt;&lt;p style=&quot;line-height: 20%; font-size: 8px;&quot;&gt;&lt;font style=&quot;font-size: 8px;&quot;&gt;- &lt;b&gt;tags&lt;/b&gt;: [&lt;font color=&quot;#ff0000&quot;&gt;Object&lt;/font&gt;]&lt;/font&gt;&lt;/p&gt;&lt;p style=&quot;line-height: 20%; font-size: 8px;&quot;&gt;&lt;font style=&quot;font-size: 8px;&quot;&gt;- &lt;b&gt;summary&lt;/b&gt;: string&lt;/font&gt;&lt;/p&gt;&lt;p style=&quot;line-height: 20%; font-size: 8px;&quot;&gt;&lt;font style=&quot;font-size: 8px;&quot;&gt;- &lt;b&gt;description&lt;/b&gt;: string&lt;/font&gt;&lt;/p&gt;&lt;p style=&quot;line-height: 20%; font-size: 8px;&quot;&gt;&lt;font style=&quot;font-size: 8px;&quot;&gt;- &lt;b&gt;externalDocs&lt;/b&gt;: &lt;font color=&quot;#ff0000&quot;&gt;Object&lt;/font&gt;&lt;/font&gt;&lt;/p&gt;&lt;p style=&quot;line-height: 20%; font-size: 8px;&quot;&gt;&lt;font style=&quot;font-size: 8px;&quot;&gt;- &lt;b&gt;operationId&lt;/b&gt;: string&lt;/font&gt;&lt;/p&gt;&lt;p style=&quot;line-height: 20%; font-size: 8px;&quot;&gt;&lt;font style=&quot;font-size: 8px;&quot;&gt;- &lt;b&gt;deprecated&lt;/b&gt;: boolean&lt;/font&gt;&lt;/p&gt;&lt;p style=&quot;line-height: 20%; font-size: 8px;&quot;&gt;&lt;font style=&quot;font-size: 8px;&quot;&gt;- &lt;b&gt;security&lt;/b&gt;: &lt;font color=&quot;#ff0000&quot;&gt;Object&lt;/font&gt;&lt;/font&gt;&lt;/p&gt;" style="shape=callout;whiteSpace=wrap;html=1;perimeter=calloutPerimeter;rounded=1;base=9;size=20;position=0.08;arcSize=6;position2=0;align=left;" parent="1" vertex="1">
          <mxGeometry x="291.25" y="190" width="88.75" height="100" as="geometry" />
        </mxCell>
        <mxCell id="GCgy2_25BJciA-IC9kOX-33" value="&lt;p style=&quot;line-height: 60%;&quot;&gt;&lt;font style=&quot;font-size: 8px;&quot;&gt;- &lt;b&gt;description&lt;/b&gt;: string&lt;br&gt;- &lt;b&gt;required&lt;/b&gt;: boolean&lt;/font&gt;&lt;/p&gt;" style="shape=callout;whiteSpace=wrap;html=1;perimeter=calloutPerimeter;rounded=1;base=12;size=20;position=0.08;arcSize=6;position2=0;align=left;" parent="1" vertex="1">
          <mxGeometry x="358" y="350" width="85" height="50" as="geometry" />
        </mxCell>
        <mxCell id="GCgy2_25BJciA-IC9kOX-34" value="&lt;p style=&quot;line-height: 60%;&quot;&gt;&lt;span style=&quot;font-size: 8px;&quot;&gt;- &lt;b&gt;isDefault&lt;/b&gt;: boolean&lt;br&gt;- &lt;b&gt;statusCode&lt;/b&gt;: enum&lt;br&gt;- &lt;b&gt;description&lt;/b&gt;: string&lt;br&gt;- &lt;b&gt;headers&lt;/b&gt;: Map[string, &lt;font color=&quot;#ff0000&quot;&gt;Object&lt;/font&gt;]&lt;br&gt;- &lt;b&gt;links&lt;/b&gt;: Map[string, &lt;font color=&quot;#ff0000&quot;&gt;Object&lt;/font&gt;]&lt;/span&gt;&lt;/p&gt;" style="shape=callout;whiteSpace=wrap;html=1;perimeter=calloutPerimeter;rounded=1;base=10;size=20;position=0.82;arcSize=6;position2=1;align=left;" parent="1" vertex="1">
          <mxGeometry x="58" y="330" width="120" height="70" as="geometry" />
        </mxCell>
        <mxCell id="GCgy2_25BJciA-IC9kOX-35" value="&lt;p style=&quot;line-height: 60%;&quot;&gt;&lt;span style=&quot;font-size: 8px; background-color: initial;&quot;&gt;- &lt;b&gt;mediaType&lt;/b&gt;: enum&lt;br&gt;- &lt;/span&gt;&lt;b style=&quot;font-size: 8px; background-color: initial;&quot;&gt;example&lt;/b&gt;&lt;span style=&quot;font-size: 8px; background-color: initial;&quot;&gt;: any&lt;br&gt;&lt;/span&gt;&lt;span style=&quot;font-size: 8px; background-color: initial;&quot;&gt;- &lt;/span&gt;&lt;b style=&quot;font-size: 8px; background-color: initial;&quot;&gt;encoding&lt;/b&gt;&lt;span style=&quot;font-size: 8px; background-color: initial;&quot;&gt;: Map[string, &lt;/span&gt;&lt;font style=&quot;font-size: 8px; background-color: initial;&quot; color=&quot;#ff0000&quot;&gt;Object&lt;/font&gt;&lt;span style=&quot;font-size: 8px; background-color: initial;&quot;&gt;]&lt;/span&gt;&lt;/p&gt;" style="shape=callout;whiteSpace=wrap;html=1;perimeter=calloutPerimeter;rounded=1;base=10;size=20;position=0.09;arcSize=6;position2=0;align=left;flipH=0;flipV=1;" parent="1" vertex="1">
          <mxGeometry x="300" y="490" width="120" height="60" as="geometry" />
        </mxCell>
        <mxCell id="hFhakRkjSb6OLR3VUNDx-2" value="1" style="text;html=1;strokeColor=none;fillColor=none;align=center;verticalAlign=middle;whiteSpace=wrap;rounded=0;fontSize=6;" vertex="1" parent="1">
          <mxGeometry x="265" y="90" width="10" height="10" as="geometry" />
        </mxCell>
        <mxCell id="hFhakRkjSb6OLR3VUNDx-3" value="m" style="text;html=1;strokeColor=none;fillColor=none;align=center;verticalAlign=middle;whiteSpace=wrap;rounded=0;fontSize=6;" vertex="1" parent="1">
          <mxGeometry x="265" y="130" width="10" height="10" as="geometry" />
        </mxCell>
        <mxCell id="hFhakRkjSb6OLR3VUNDx-4" value="1" style="text;html=1;strokeColor=none;fillColor=none;align=center;verticalAlign=middle;whiteSpace=wrap;rounded=0;fontSize=6;" vertex="1" parent="1">
          <mxGeometry x="290" y="66" width="10" height="10" as="geometry" />
        </mxCell>
        <mxCell id="hFhakRkjSb6OLR3VUNDx-5" value="m" style="text;html=1;strokeColor=none;fillColor=none;align=center;verticalAlign=middle;whiteSpace=wrap;rounded=0;fontSize=6;" vertex="1" parent="1">
          <mxGeometry x="424" y="131" width="10" height="10" as="geometry" />
        </mxCell>
        <mxCell id="hFhakRkjSb6OLR3VUNDx-6" value="0...8" style="text;html=1;strokeColor=none;fillColor=none;align=center;verticalAlign=middle;whiteSpace=wrap;rounded=0;fontSize=6;" vertex="1" parent="1">
          <mxGeometry x="250" y="251" width="12" height="10" as="geometry" />
        </mxCell>
        <mxCell id="hFhakRkjSb6OLR3VUNDx-7" value="1" style="text;html=1;strokeColor=none;fillColor=none;align=center;verticalAlign=middle;whiteSpace=wrap;rounded=0;fontSize=6;" vertex="1" parent="1">
          <mxGeometry x="255" y="201" width="10" height="10" as="geometry" />
        </mxCell>
        <mxCell id="hFhakRkjSb6OLR3VUNDx-8" value="1" style="text;html=1;strokeColor=none;fillColor=none;align=center;verticalAlign=middle;whiteSpace=wrap;rounded=0;fontSize=6;" vertex="1" parent="1">
          <mxGeometry x="228.75" y="175.5" width="10" height="10" as="geometry" />
        </mxCell>
        <mxCell id="hFhakRkjSb6OLR3VUNDx-9" value="m" style="text;html=1;strokeColor=none;fillColor=none;align=center;verticalAlign=middle;whiteSpace=wrap;rounded=0;fontSize=6;" vertex="1" parent="1">
          <mxGeometry x="145" y="190" width="10" height="10" as="geometry" />
        </mxCell>
        <mxCell id="hFhakRkjSb6OLR3VUNDx-10" value="1" style="text;html=1;strokeColor=none;fillColor=none;align=center;verticalAlign=middle;whiteSpace=wrap;rounded=0;fontSize=6;" vertex="1" parent="1">
          <mxGeometry x="291.25" y="175.5" width="10" height="10" as="geometry" />
        </mxCell>
        <mxCell id="hFhakRkjSb6OLR3VUNDx-11" value="m" style="text;html=1;strokeColor=none;fillColor=none;align=center;verticalAlign=middle;whiteSpace=wrap;rounded=0;fontSize=6;" vertex="1" parent="1">
          <mxGeometry x="391" y="175.5" width="10" height="10" as="geometry" />
        </mxCell>
        <mxCell id="hFhakRkjSb6OLR3VUNDx-12" value="m" style="text;html=1;strokeColor=none;fillColor=none;align=center;verticalAlign=middle;whiteSpace=wrap;rounded=0;fontSize=6;" vertex="1" parent="1">
          <mxGeometry x="145" y="268" width="10" height="10" as="geometry" />
        </mxCell>
        <mxCell id="hFhakRkjSb6OLR3VUNDx-13" value="1" style="text;html=1;strokeColor=none;fillColor=none;align=center;verticalAlign=middle;whiteSpace=wrap;rounded=0;fontSize=6;" vertex="1" parent="1">
          <mxGeometry x="228.75" y="285" width="10" height="10" as="geometry" />
        </mxCell>
        <mxCell id="hFhakRkjSb6OLR3VUNDx-14" value="1" style="text;html=1;strokeColor=none;fillColor=none;align=center;verticalAlign=middle;whiteSpace=wrap;rounded=0;fontSize=6;" vertex="1" parent="1">
          <mxGeometry x="291.25" y="285" width="10" height="10" as="geometry" />
        </mxCell>
        <mxCell id="hFhakRkjSb6OLR3VUNDx-15" value="m" style="text;html=1;strokeColor=none;fillColor=none;align=center;verticalAlign=middle;whiteSpace=wrap;rounded=0;fontSize=6;" vertex="1" parent="1">
          <mxGeometry x="424" y="208" width="10" height="10" as="geometry" />
        </mxCell>
        <mxCell id="hFhakRkjSb6OLR3VUNDx-16" value="1" style="text;html=1;strokeColor=none;fillColor=none;align=center;verticalAlign=middle;whiteSpace=wrap;rounded=0;fontSize=6;" vertex="1" parent="1">
          <mxGeometry x="250" y="320" width="10" height="10" as="geometry" />
        </mxCell>
        <mxCell id="hFhakRkjSb6OLR3VUNDx-17" value="1" style="text;html=1;strokeColor=none;fillColor=none;align=center;verticalAlign=middle;whiteSpace=wrap;rounded=0;fontSize=6;" vertex="1" parent="1">
          <mxGeometry x="270" y="320" width="10" height="10" as="geometry" />
        </mxCell>
        <mxCell id="hFhakRkjSb6OLR3VUNDx-18" value="m" style="text;html=1;strokeColor=none;fillColor=none;align=center;verticalAlign=middle;whiteSpace=wrap;rounded=0;fontSize=6;" vertex="1" parent="1">
          <mxGeometry x="202.5" y="360" width="10" height="10" as="geometry" />
        </mxCell>
        <mxCell id="hFhakRkjSb6OLR3VUNDx-19" value="1" style="text;html=1;strokeColor=none;fillColor=none;align=center;verticalAlign=middle;whiteSpace=wrap;rounded=0;fontSize=6;" vertex="1" parent="1">
          <mxGeometry x="322" y="361" width="10" height="10" as="geometry" />
        </mxCell>
        <mxCell id="hFhakRkjSb6OLR3VUNDx-20" value="1" style="text;html=1;strokeColor=none;fillColor=none;align=center;verticalAlign=middle;whiteSpace=wrap;rounded=0;fontSize=6;" vertex="1" parent="1">
          <mxGeometry x="202.5" y="425" width="10" height="10" as="geometry" />
        </mxCell>
        <mxCell id="hFhakRkjSb6OLR3VUNDx-21" value="m" style="text;html=1;strokeColor=none;fillColor=none;align=center;verticalAlign=middle;whiteSpace=wrap;rounded=0;fontSize=6;" vertex="1" parent="1">
          <mxGeometry x="222" y="465" width="10" height="10" as="geometry" />
        </mxCell>
        <mxCell id="hFhakRkjSb6OLR3VUNDx-22" value="1" style="text;html=1;strokeColor=none;fillColor=none;align=center;verticalAlign=middle;whiteSpace=wrap;rounded=0;fontSize=6;" vertex="1" parent="1">
          <mxGeometry x="322" y="425" width="10" height="10" as="geometry" />
        </mxCell>
        <mxCell id="hFhakRkjSb6OLR3VUNDx-23" value="m" style="text;html=1;strokeColor=none;fillColor=none;align=center;verticalAlign=middle;whiteSpace=wrap;rounded=0;fontSize=6;" vertex="1" parent="1">
          <mxGeometry x="298.25" y="465" width="10" height="10" as="geometry" />
        </mxCell>
        <mxCell id="hFhakRkjSb6OLR3VUNDx-24" value="1" style="text;html=1;strokeColor=none;fillColor=none;align=center;verticalAlign=middle;whiteSpace=wrap;rounded=0;fontSize=6;" vertex="1" parent="1">
          <mxGeometry x="255" y="500" width="10" height="10" as="geometry" />
        </mxCell>
        <mxCell id="hFhakRkjSb6OLR3VUNDx-25" value="1" style="text;html=1;strokeColor=none;fillColor=none;align=center;verticalAlign=middle;whiteSpace=wrap;rounded=0;fontSize=6;" vertex="1" parent="1">
          <mxGeometry x="254" y="530" width="10" height="10" as="geometry" />
        </mxCell>
      </root>
    </mxGraphModel>
  </diagram>
</mxfile>
